<svg xmlns="http://www.w3.org/2000/svg" width="32" height="32" viewBox="0 0 32 32">
                          <g id="Group_291" data-name="Group 291">
                            <g id="Group_290" data-name="Group 290">
                                <g id="Group_5194" data-name="Group 5194">
                                  <g id="Group_5193" data-name="Group 5193" style="clip-path:url(#clip-path)">
                                    <path id="Path_12660" data-name="Path 12660" class="cls-5"
                                      d="M29.954 39.7a.338.338 0 0 1-.168-.045l-8.968-5.177a.336.336 0 0 1-.168-.291V23.831a.336.336 0 0 1 .168-.291l8.968-5.178a.337.337 0 0 1 .336 0l8.968 5.178a.336.336 0 0 1 .168.291v10.356a.336.336 0 0 1-.168.291l-8.968 5.177a.337.337 0 0 1-.168.045m-8.631-5.708 8.631 4.983 8.632-4.983v-9.967l-8.632-4.984-8.631 4.984z"
                                      transform="translate(-14.36 -12.738)"></path>
                                    <path id="Path_12661" data-name="Path 12661" class="cls-5"
                                      d="M25.3 38.031a.338.338 0 0 1-.144-.031l-4.315-2.043a.336.336 0 0 1 .288-.608l4.315 2.043a.336.336 0 0 1-.144.64"
                                      transform="translate(-14.36 -24.558)"></path>
                                    <path id="Path_12662" data-name="Path 12662" class="cls-5"
                                      d="M65.7 38.08a.336.336 0 0 1-.147-.639l4.315-2.092a.336.336 0 1 1 .293.6l-4.311 2.097a.331.331 0 0 1-.146.034"
                                      transform="translate(-45.457 -24.559)"></path>
                                    <path id="Path_12663" data-name="Path 12663" class="cls-5"
                                      d="M50.428 75.2a.336.336 0 0 1-.336-.336V69.7a.336.336 0 0 1 .673 0v5.16a.336.336 0 0 1-.336.336"
                                      transform="translate(-34.834 -48.234)"></path>
                                    <path id="Path_12664" data-name="Path 12664" class="cls-5"
                                      d="M22.287 67.322a.336.336 0 0 1-.17-.627l1.162-.677a.336.336 0 1 1 .339.581l-1.162.677a.335.335 0 0 1-.169.046m16.965-.132a.331.331 0 0 1-.165-.044l-1.422-.914a.336.336 0 1 1 .335-.586l1.422.914a.336.336 0 0 1-.166.629"
                                      transform="translate(-15.265 -45.621)"></path>
                                    <path id="Path_12665" data-name="Path 12665" class="cls-5"
                                      d="M50.428 27.509a.336.336 0 0 1-.336-.336v-1.346a.336.336 0 1 1 .673 0v1.345a.336.336 0 0 1-.336.336m0-3.587a.336.336 0 0 1-.336-.336V22.24a.336.336 0 1 1 .673 0v1.345a.336.336 0 0 1-.336.336m0-3.587a.336.336 0 0 1-.338-.334v-1.347a.336.336 0 1 1 .673 0V20a.336.336 0 0 1-.336.336"
                                      transform="translate(-34.834 -12.738)"></path>
                                    <path id="Path_12666" data-name="Path 12666" class="cls-5"
                                      d="M15.325 88.944a.335.335 0 0 1-.15-.035L.186 81.414a.336.336 0 0 1 .3-.6l14.84 7.42 15.133-7.348a.336.336 0 0 1 .294.605L15.471 88.91a.334.334 0 0 1-.147.034"
                                      transform="translate(0 -56.173)"></path>
                                    <path id="Path_12667" data-name="Path 12667" class="cls-5"
                                      d="M.337 76.25a.336.336 0 0 1-.157-.634l4.335-2.277a.336.336 0 0 1 .313.6L.493 76.211a.331.331 0 0 1-.156.039"
                                      transform="translate(0 -50.973)"></path>
                                    <path id="Path_12668" data-name="Path 12668" class="cls-5"
                                      d="M89.482 75.653a.336.336 0 0 1-.17-.047l-4.482-2.645a.336.336 0 0 1 .342-.579l4.481 2.645a.336.336 0 0 1-.171.626"
                                      transform="translate(-58.877 -50.303)"></path>
                                    <path id="Path_12669" data-name="Path 12669" class="cls-5"
                                      d="M12.521 9.534a.336.336 0 0 1-.291-.167 6.138 6.138 0 0 1-.567-1.3.336.336 0 1 1 .644-.2 5.453 5.453 0 0 0 .505 1.159.336.336 0 0 1-.29.506m10.907-1.771a.32.32 0 0 1-.069-.007.336.336 0 0 1-.26-.4 5.485 5.485 0 0 0 .117-1.118v-.141a.337.337 0 0 1 .327-.345.319.319 0 0 1 .345.327v.159a6.158 6.158 0 0 1-.131 1.256.336.336 0 0 1-.329.267m-11.68-1.671h-.028a.336.336 0 0 1-.307-.363 6.2 6.2 0 0 1 .276-1.391.336.336 0 1 1 .64.205 5.582 5.582 0 0 0-.247 1.242.336.336 0 0 1-.334.309m11.327-1.84a.337.337 0 0 1-.309-.2 5.54 5.54 0 0 0-.629-1.1.336.336 0 1 1 .542-.4 6.259 6.259 0 0 1 .7 1.231.337.337 0 0 1-.309.469m-10-1.43a.336.336 0 0 1-.259-.55 6.3 6.3 0 0 1 1.02-.984.336.336 0 0 1 .41.533 5.607 5.607 0 0 0-.911.879.335.335 0 0 1-.259.122m7.7-1.25a.337.337 0 0 1-.178-.051A5.543 5.543 0 0 0 19.456.97a.336.336 0 0 1 .219-.636 6.216 6.216 0 0 1 1.28.612.336.336 0 0 1-.179.621m-4.74-.681a.336.336 0 0 1-.091-.66 6.228 6.228 0 0 1 1.4-.226.336.336 0 1 1 .031.672 5.572 5.572 0 0 0-1.249.2.34.34 0 0 1-.091.012"
                                      transform="translate(-7.936)"></path>
                                    <path id="Path_12670" data-name="Path 12670" class="cls-5"
                                      d="M12.658 10.01a.336.336 0 0 1-.28-.15A6.236 6.236 0 0 1 16.573.272a.336.336 0 1 1 .107.664 5.564 5.564 0 0 0-3.742 8.552.336.336 0 0 1-.279.523"
                                      transform="translate(-7.891 -.186)"></path>
                                    <path id="Path_12671" data-name="Path 12671" class="cls-5"
                                      d="M8.778 27.371a.336.336 0 0 1-.007-.673l2.113-.043.255-1.87a.336.336 0 1 1 .666.09l-.294 2.155a.337.337 0 0 1-.326.291l-2.4.049z"
                                      transform="translate(-5.87 -17.033)"></path>
                                    <path id="Path_12672" data-name="Path 12672" class="cls-5"
                                      d="M37.272 54.623h-2.647l-.461 1.027h-.832l2.194-4.89h.852l2.194 4.89h-.832zm-1.32-3.039-1.034 2.326h2.068z"
                                      transform="translate(-23.179 -35.299)"></path>
                                    <path id="Path_12673" data-name="Path 12673" class="cls-5"
                                      d="M56.972 55.634h-.915l-1.488-1.69h-1.034v1.69h-.782v-4.9c.761 0 1.516.007 2.277.007a1.594 1.594 0 0 1 1.725 1.6 1.443 1.443 0 0 1-1.327 1.523l1.46 1.628zm-3.437-4.177v1.774h1.488a.842.842 0 0 0 .936-.873.871.871 0 0 0-.929-.9z"
                                      transform="translate(-36.685 -35.283)"></path>
                                  </g>
                                </g>
                            </g>
                          </g>
                        </svg>